<svg width="44" height="82" viewBox="0 0 44 82" fill="none" xmlns="http://www.w3.org/2000/svg">
<path d="M14.344 34L17.344 24H27.2192L29.7192 34H14.344Z" stroke="white" stroke-width="2"/>
<rect x="1" y="39" width="42" height="7" stroke="white" stroke-width="2"/>
<path d="M14.3795 51L17.3249 60H26.6751L29.6205 51H14.3795Z" stroke="white" stroke-width="2"/>
<mask id="path-4-inside-1_295_39" fill="white">
<path d="M17.0576 0H26.9419V19.7685H17.0576V0Z"/>
</mask>
<path d="M17.0576 0V-2H15.0576V0H17.0576ZM26.9419 0H28.9419V-2H26.9419V0ZM26.9419 19.7685V21.7685H28.9419V19.7685H26.9419ZM17.0576 19.7685H15.0576V21.7685H17.0576V19.7685ZM17.0576 2H26.9419V-2H17.0576V2ZM24.9419 0V19.7685H28.9419V0H24.9419ZM26.9419 17.7685H17.0576V21.7685H26.9419V17.7685ZM19.0576 19.7685V0H15.0576V19.7685H19.0576Z" fill="white" mask="url(#path-4-inside-1_295_39)"/>
<mask id="path-6-inside-2_295_39" fill="white">
<path d="M17.0576 63.8188H26.9419V81.1163H17.0576V63.8188Z"/>
</mask>
<path d="M17.0576 63.8188V61.8188H15.0576V63.8188H17.0576ZM26.9419 63.8188H28.9419V61.8188H26.9419V63.8188ZM26.9419 81.1163V83.1163H28.9419V81.1163H26.9419ZM17.0576 81.1163H15.0576V83.1163H17.0576V81.1163ZM17.0576 65.8188H26.9419V61.8188H17.0576V65.8188ZM24.9419 63.8188V81.1163H28.9419V63.8188H24.9419ZM26.9419 79.1163H17.0576V83.1163H26.9419V79.1163ZM19.0576 81.1163V63.8188H15.0576V81.1163H19.0576Z" fill="white" mask="url(#path-6-inside-2_295_39)"/>
<circle cx="22" cy="75" r="2" fill="white"/>
</svg>
