<svg width="56" height="55" viewBox="0 0 56 55" fill="none" xmlns="http://www.w3.org/2000/svg">
<circle cx="28" cy="27.5" r="26.5" stroke="white" stroke-width="2"/>
<circle cx="28.0002" cy="27.5" r="13.3478" stroke="white" stroke-width="2"/>
<circle cx="8.27184" cy="28.0978" r="2.98913" fill="white"/>
<circle cx="47.7284" cy="28.0978" r="2.98913" fill="white"/>
<circle cx="43.5436" cy="15.5435" r="2.3913" fill="white"/>
<circle cx="33.9782" cy="8.36951" r="2.3913" fill="white"/>
<circle cx="22.0217" cy="8.36951" r="2.3913" fill="white"/>
<circle cx="12.4562" cy="15.5435" r="2.3913" fill="white"/>
<circle cx="2.3913" cy="2.3913" r="2.3913" transform="matrix(-1 0 0 1 45.9341 37.0652)" fill="white"/>
<circle cx="2.3913" cy="2.3913" r="2.3913" transform="matrix(-1 0 0 1 36.3687 44.2391)" fill="white"/>
<circle cx="2.3913" cy="2.3913" r="2.3913" transform="matrix(-1 0 0 1 24.4121 44.2391)" fill="white"/>
<circle cx="2.3913" cy="2.3913" r="2.3913" transform="matrix(-1 0 0 1 14.8472 37.0652)" fill="white"/>
</svg>
