<svg width="31" height="65" viewBox="0 0 31 65" fill="none" xmlns="http://www.w3.org/2000/svg">
<path d="M21.7866 7.99994V24.6634C21.7866 24.7675 21.7866 24.9756 21.7866 25.0797C21.381 26.7447 18.7447 27.9935 15.6013 27.9935C12.458 27.9935 9.82161 26.7447 9.41602 25.0797C9.41602 24.9756 9.41602 24.8715 9.41602 24.6634V7.70081C9.41602 7.59674 9.41601 7.38861 9.51741 7.28455C10.0244 6.03577 12.5594 5.09918 15.7027 5.09918C18.8461 5.09918 21.5 5.99994 21.635 7.28455C21.635 7.28455 21.7866 7.79181 21.7866 7.99994Z" stroke="white" stroke-width="2" stroke-miterlimit="10"/>
<path d="M15.5 5.09919C14.7902 5.09919 14.2832 4.4748 14.2832 3.85041V1.24878C14.2832 0.520325 14.8916 0 15.5 0C16.2098 0 16.7168 0.62439 16.7168 1.24878V3.85041C16.7168 4.57886 16.2098 5.09919 15.5 5.09919Z" fill="white"/>
<path d="M14.283 1.97723C14.283 1.97723 13.8774 4.1626 10.5312 5.20325H15.4998L14.283 1.97723Z" fill="white"/>
<path d="M16.7168 1.97723C16.7168 1.97723 17.1224 4.1626 20.4685 5.20325H15.5L16.7168 1.97723Z" fill="white"/>
<path d="M18.8461 27.6813H12.1538V31.1154H18.8461V27.6813Z" fill="white" fill-opacity="0.7"/>
<path d="M15.5001 33.3008C20.3161 33.3008 24.2203 32.7417 24.2203 32.052C24.2203 31.3623 20.3161 30.8032 15.5001 30.8032C10.684 30.8032 6.77979 31.3623 6.77979 32.052C6.77979 32.7417 10.684 33.3008 15.5001 33.3008Z" stroke="white" stroke-width="2" stroke-miterlimit="10"/>
<path d="M6.77979 31.5318V37.5675" stroke="white" stroke-width="2" stroke-miterlimit="10"/>
<path d="M24.2202 32.0521V37.9838" stroke="white" stroke-width="2" stroke-miterlimit="10"/>
<path d="M30 38.8162C30 39.9609 23.5105 41.8341 15.5 41.8341C7.48951 41.8341 1 40.065 1 38.8162C1 38.4 4.34616 36.6309 6.77972 36.6309C8.4021 37.0471 13.0664 37.4634 15.5 37.4634C17.9336 37.4634 22.6993 37.0471 24.2203 36.6309C26.7552 36.7349 30 38.4 30 38.8162Z" stroke="white" stroke-width="2" stroke-miterlimit="10"/>
<path d="M24.2203 41.1057V50.3675C24.2203 51.3041 20.2658 52.0325 15.5001 52.0325C10.7343 52.0325 6.77979 51.3041 6.77979 50.3675V41.1057" stroke="white" stroke-width="2" stroke-miterlimit="10"/>
<path d="M9.21338 51.2V60.5658" stroke="white" stroke-width="2" stroke-miterlimit="10"/>
<path d="M21.7866 51.2V60.5658" stroke="white" stroke-width="2" stroke-miterlimit="10"/>
<path d="M17.1225 64H13.8778C13.168 64 12.5596 63.3756 12.5596 62.6472V52.0325H18.3393V62.6472C18.4407 63.3756 17.8323 64 17.1225 64Z" stroke="white" stroke-width="2" stroke-miterlimit="10"/>
</svg>
