<svg width="44" height="65" viewBox="0 0 44 65" fill="none" xmlns="http://www.w3.org/2000/svg">
<path d="M35 8.00002C35 8.00002 35 10.3 35.9 11.9C36.5 12.9 39.6 17.3 41.5 19.6C42.7 21 42.4 22.4 42.4 22.7V61.4C42.4 62.3 41.6 62.9 40.5 62.9H3.4C2.4 62.9 2 62.3 2 61.4V28.4C2 25.3 3 22.4 6 20.4L24.1 11.8C25.6 11.1 26.6 9.80002 26.7 8.40002C26.7 8.20002 26.7 8.10002 26.7 7.90002H35V8.00002Z" stroke="white" stroke-width="3" stroke-miterlimit="10"/>
<path d="M35 8.5H26C25.4 8.5 25 8 25 7.5V3C25 2.4 25.5 2 26 2H35C35.6 2 36 2.5 36 3V7.5C36 8 35.5 8.5 35 8.5Z" stroke="white" stroke-width="3" stroke-miterlimit="10"/>
<path d="M17 46.5H37" stroke="white" stroke-width="3" stroke-miterlimit="10"/>
<path d="M17 54.5H30" stroke="white" stroke-width="3" stroke-miterlimit="10"/>
</svg>
